<?xml version="1.0" encoding="utf-8"?><!DOCTYPE svg PUBLIC "-//W3C//DTD SVG 1.1//EN" "http://www.w3.org/Graphics/SVG/1.1/DTD/svg11.dtd"><svg version="1.1" id="Contours" xmlns="http://www.w3.org/2000/svg" xmlns:xlink="http://www.w3.org/1999/xlink" x="0px" y="0px" width="265.225830px" height="346.994171px" viewBox="0.000000 0.000000 265.225830 346.994171" enable-background="new 0 0 265.225830 346.994171" xml:space="preserve" stroke="black" fill="none" stroke-linecap='round' stroke-linejoin='round'><path class="selected"  fill="#000000" opacity="1.000000" stroke="none" 
 	d="
M69.102776 123.144539 L69.102776 123.144539 "/><path class="selected"  fill="#000000" opacity="1.000000" stroke="none" 
 	d="
M216.102783 277.644531 L216.102783 277.644531 "/><path class="selected"  fill="#000000" opacity="1.000000" stroke="none" 
 	d="
M0.000000 266.725250 C4.827736 267.564606 9.848946 267.269775 14.545273 265.871185 C15.148331 265.215271 15.356598 264.221771 15.067726 263.378906 C13.050270 263.500122 11.034920 262.137756 10.395432 260.220520 C17.098030 260.356537 23.810585 259.999634 30.460976 259.153625 C32.474274 258.897522 34.569801 258.562164 36.212311 257.370056 C37.854813 256.177948 38.863251 253.861389 37.940468 252.053787 C34.977142 252.342056 31.909691 250.839798 30.320610 248.322006 C32.752930 248.261032 35.185249 248.200043 37.617569 248.139069 C38.231979 249.692184 39.111839 251.329803 40.675415 251.917084 C42.238998 252.504364 44.429100 251.204315 44.011658 249.587082 C42.320297 248.860291 40.628937 248.133499 38.937584 247.406708 C40.794701 245.808975 43.593521 246.887192 45.976234 247.456696 C54.569527 249.510605 63.389275 243.196442 67.208015 235.228989 C71.026772 227.261536 71.049904 218.073822 70.998009 209.238632 C79.504631 215.048843 80.894249 228.853745 73.716270 236.242783 C70.675026 239.373428 66.496422 241.370468 63.986519 244.941238 C61.750374 248.122498 59.681038 253.048157 55.888557 252.189209 C49.511147 250.744812 42.359314 254.363556 39.745544 260.357330 C37.998322 264.364014 39.107040 270.272278 43.371216 271.232971 C44.499763 271.487244 45.720879 271.356689 46.776405 271.830109 C47.831932 272.303528 48.548622 273.824402 47.698555 274.609009 C41.463539 272.483948 34.405205 272.892334 28.456886 275.722321 C27.102303 276.366791 25.741867 277.147644 24.242516 277.194305 C22.743172 277.240967 21.074333 276.213776 21.057579 274.713806 C22.900383 273.038055 25.664780 273.096313 28.123077 272.695312 C30.581375 272.294312 33.387711 270.699524 33.235092 268.213409 C33.101509 266.037262 30.605537 264.671082 28.431656 264.837402 C26.257774 265.003723 24.328918 266.213715 22.383385 267.197723 C15.721703 270.567078 7.857208 271.492859 0.595215 269.762543 C0.396812 268.750122 0.198402 267.737671 0.000000 266.725250 M72.884819 224.611359 C72.303291 225.108902 73.451607 226.013229 74.030083 225.512146 C74.608574 225.011063 74.474342 224.081436 74.188698 223.371414 C73.903053 222.661392 73.507607 221.906403 73.723747 221.172226 C73.037392 222.165085 72.821877 223.469177 73.152306 224.630081 z"/><path class="selected"  fill="#000000" opacity="1.000000" stroke="none" 
 	d="
M223.102783 194.644547 L223.102783 194.644547 "/><path class="selected"  fill="#000000" opacity="1.000000" stroke="none" 
 	d="
M55.183830 167.010529 C60.702873 167.111618 63.552162 160.278900 63.490227 154.759277 C63.428307 149.239655 62.148094 143.155945 65.285439 138.614243 C67.589211 148.290649 69.360741 159.973694 62.211845 166.889893 C54.360481 174.485672 52.661827 187.650314 58.327919 196.990280 C54.859184 195.641403 52.591133 191.725647 53.147072 188.045624 C51.613976 188.743851 50.290092 189.894073 49.384529 191.314590 C47.061485 155.061157 46.154167 118.717018 46.665321 82.392830 C46.698601 80.028160 46.976479 77.234535 49.026436 76.055351 C49.926384 103.300728 50.826332 130.546112 51.726280 157.791473 C53.096184 152.073700 54.466072 146.355911 55.835976 140.638123 C57.860985 132.185944 59.678093 122.518730 54.665154 115.418694 C58.650047 117.022652 60.989937 121.886406 59.756157 126.000992 C62.229424 126.150543 64.747673 125.385796 66.720116 123.886185 C58.818886 136.742737 54.757133 151.926163 55.183830 167.010529 z"/><path class="selected"  fill="#000000" opacity="1.000000" stroke="none" 
 	d="
M221.602783 197.144547 L221.602783 197.144547 "/><path class="selected"  fill="#000000" opacity="1.000000" stroke="none" 
 	d="
M67.796837 179.688034 C66.943886 184.104172 66.661537 188.607880 66.380989 193.096878 C66.146309 196.852234 65.911629 200.607605 65.676933 204.362976 C60.987495 195.941345 59.835075 185.621017 62.551384 176.372437 C65.267693 167.123840 71.817848 159.065750 80.316551 154.517487 C73.974007 161.571640 69.595787 170.373917 67.796837 179.688034 z"/><path class="selected"  fill="#000000" opacity="1.000000" stroke="none" 
 	d="
M151.102783 212.144547 L151.102783 212.144547 "/><path class="selected"  fill="#000000" opacity="1.000000" stroke="none" 
 	d="
M162.518982 130.917465 C165.331055 130.636749 168.143127 130.356033 170.955200 130.075317 C167.732147 134.391647 164.509125 138.707977 161.286102 143.024323 C165.546997 142.048813 169.807892 141.073303 174.068787 140.097794 C176.944611 139.439377 181.295502 139.924591 181.106873 142.868805 C170.673645 144.066208 160.362671 146.326294 150.385162 149.602768 C149.945099 147.716492 151.908142 146.238525 153.522675 145.168533 C156.791138 143.002472 159.819000 139.995514 160.584351 136.149887 C161.349701 132.304276 158.954590 127.698830 155.056305 127.277016 C153.646606 127.124474 152.162842 127.500313 150.834076 127.005394 C151.937958 126.206520 152.446716 124.672554 152.038971 123.372353 C156.685242 123.120247 161.284119 126.431213 162.518982 130.917465 z"/><path class="selected"  fill="#000000" opacity="1.000000" stroke="none" 
 	d="
M57.102776 236.144547 L57.102776 236.144547 "/><path class="selected"  fill="#000000" opacity="1.000000" stroke="none" 
 	d="
M60.243065 318.042786 C51.787575 318.972382 45.004616 309.458282 45.988564 301.008942 C46.187111 299.303955 46.728767 297.456848 48.183342 296.545532 C52.557533 293.804962 57.437920 290.951233 62.538826 291.741760 C67.639732 292.532318 71.765007 299.142181 68.348503 303.011505 C65.235298 306.537323 63.384087 311.155060 63.199669 315.854980 C63.147133 317.193665 61.574760 317.896362 60.243065 318.042786 M51.097069 301.652710 C52.540794 302.809235 55.114342 301.494812 55.023705 299.647186 C54.476479 298.836487 53.571312 298.277191 52.601463 298.150482 C52.101891 299.315186 51.602333 300.479858 51.102760 301.644562 z"/><path class="selected"  fill="#000000" opacity="1.000000" stroke="none" 
 	d="
M57.102776 236.144547 L57.102776 236.144547 "/><path class="selected"  fill="#000000" opacity="1.000000" stroke="none" 
 	d="
M197.780548 117.154404 C197.285675 115.831314 197.283325 114.382607 197.287140 112.970001 C197.311646 103.896416 197.336151 94.822830 197.360657 85.749252 C197.367218 83.326950 197.395325 80.807625 198.463867 78.633720 C199.532379 76.459824 201.972778 74.755150 204.320709 75.350868 C201.852966 78.967094 200.714447 83.469406 201.166595 87.823990 C202.239746 98.159630 202.068054 108.623947 200.656372 118.918816 C203.489288 117.720406 206.322174 116.521988 209.155090 115.323578 C209.050964 118.009598 206.871429 120.469795 204.217560 120.896957 C201.563690 121.324120 198.722260 119.672081 197.780548 117.154404 z"/><path class="selected"  fill="#000000" opacity="1.000000" stroke="none" 
 	d="
M253.955872 343.842285 L254.301331 344.012909 "/><path class="selected"  fill="#000000" opacity="1.000000" stroke="none" 
 	d="
M242.719177 335.169525 C243.369873 337.025421 243.039490 339.195099 241.865936 340.773254 C244.592072 341.266937 246.502228 337.851318 246.226868 335.094543 C245.951508 332.337769 244.465607 329.780823 244.395325 327.011230 C244.325073 324.241638 246.860168 321.071533 249.410095 322.154846 C251.204620 322.917206 251.694336 325.190552 251.890991 327.130371 C252.404175 332.192841 252.481537 337.636566 249.816406 341.971191 C247.151306 346.305817 240.800751 348.694153 236.781158 345.574097 C237.764069 341.673157 240.271149 338.361786 242.719177 335.169525 z"/><path class="selected"  fill="#000000" opacity="1.000000" stroke="none" 
 	d="
M200.602783 240.144547 L200.602783 240.144547 "/><path class="selected"  fill="#000000" opacity="1.000000" stroke="none" 
 	d="
M261.662964 119.879341 C264.543427 133.580368 265.472595 147.690079 264.413757 161.650513 C264.251312 163.792084 263.849243 166.251282 262.000061 167.343658 C261.887695 151.522217 261.775330 135.700790 261.662964 119.879341 z"/><path class="selected"  fill="#000000" opacity="1.000000" stroke="none" 
 	d="
M67.070992 124.135643 C67.302284 123.326500 68.327492 122.856110 69.091728 123.208473 C68.885475 123.998718 67.849251 124.438538 67.137535 124.037910 z"/><path class="selected"  fill="#000000" opacity="1.000000" stroke="none" 
 	d="
M109.803581 255.301682 C109.077309 253.877792 108.815971 252.221375 109.068596 250.643036 C110.189674 249.490753 112.021507 250.861267 113.611534 251.098709 C117.637917 251.699997 119.835152 244.735046 123.841469 245.458069 C123.085457 247.998627 122.329445 250.539185 121.573433 253.079727 C121.161232 254.464890 119.658546 256.167877 118.669838 255.113831 C116.389473 252.682709 111.978920 252.776169 109.803581 255.301682 z"/><path class="selected"  fill="#000000" opacity="1.000000" stroke="none" 
 	d="
M38.595978 294.501648 C37.904785 294.488495 37.879669 295.808594 38.570869 295.821747 C39.262062 295.834869 39.287170 294.514801 38.595978 294.501648 z"/><path class="selected"  fill="#000000" opacity="1.000000" stroke="none" 
 	d="
M265.044037 340.609131 C263.107178 341.145020 260.973358 341.667908 259.151184 340.820404 C255.582886 339.160828 256.009552 333.809387 258.051849 330.445435 C259.729950 327.681335 262.101196 325.341766 264.887604 323.701019 C265.412811 325.455475 264.295502 327.253510 263.128265 328.664734 C261.960999 330.075958 260.613068 331.575195 260.586823 333.406403 C260.560608 335.237610 262.885071 336.987549 264.224731 335.738831 C265.154327 337.155304 265.458984 338.966461 265.044037 340.609131 z"/><path class="selected"  fill="#000000" opacity="1.000000" stroke="none" 
 	d="
M99.238167 217.772003 C99.735298 217.273636 100.644569 218.295105 100.107002 218.749542 C99.569420 219.203979 98.691750 218.217819 99.187843 217.718430 z"/><path class="selected"  fill="#000000" opacity="1.000000" stroke="none" 
 	d="
M134.184387 73.768646 C134.494385 73.175453 135.208160 72.941223 135.852692 72.760880 C139.198639 71.824715 142.921417 70.919083 146.019073 72.492668 C149.116760 74.066254 150.178406 79.326653 147.039429 80.816170 C146.220673 81.204697 145.283722 81.261818 144.378601 81.216194 C140.626923 81.027084 136.998993 79.095123 134.748108 76.087723 C134.244202 75.414452 133.794891 74.513962 134.184387 73.768646 z"/><path class="selected"  fill="#000000" opacity="1.000000" stroke="none" 
 	d="
M141.604431 228.505356 C140.911835 228.508530 140.917908 229.831268 141.610474 229.828094 C142.303070 229.824936 142.297028 228.502182 141.604431 228.505356 z"/><path class="selected"  fill="#000000" opacity="1.000000" stroke="none" 
 	d="
M88.089180 219.669098 C91.367470 215.854401 94.645744 212.039703 97.924019 208.224991 C98.452217 213.815826 93.695869 219.350464 88.089180 219.669098 z"/><path class="selected"  fill="#000000" opacity="1.000000" stroke="none" 
 	d="
M63.553123 273.208984 C64.424492 273.745544 63.598457 275.429779 62.640755 275.069275 C61.773796 274.523163 62.632408 272.846069 63.582314 273.230164 z"/><path class="selected"  fill="#000000" opacity="1.000000" stroke="none" 
 	d="
M8.586273 14.088034 C7.353142 13.222082 6.433762 11.918921 6.031494 10.466792 C9.420547 9.391717 11.790314 5.743483 11.394775 2.210067 C13.469101 4.941926 14.456917 8.476233 14.099617 11.887720 C12.052689 11.674241 9.923759 12.523872 8.586273 14.088032 z"/><path class="selected"  fill="#000000" opacity="1.000000" stroke="none" 
 	d="
M124.034615 43.175823 C124.469566 44.053024 123.576118 45.249195 122.611549 45.081081 C121.684288 44.348675 123.085411 42.578400 124.011223 43.312649 z"/><path class="selected"  fill="#000000" opacity="1.000000" stroke="none" 
 	d="
M151.510498 253.052277 C153.607971 250.630173 157.831848 250.523132 160.049286 252.835922 C158.322876 256.980988 152.448639 258.691589 148.766754 256.121429 C149.712036 255.129196 150.657349 254.136963 151.602631 253.144714 z"/><path class="selected"  fill="#000000" opacity="1.000000" stroke="none" 
 	d="
M12.089165 18.643824 C12.457985 19.611931 10.764854 20.462049 10.208725 19.587990 C9.552788 18.769011 11.339775 17.961185 12.073090 18.711670 z"/><path class="selected"  fill="#000000" opacity="1.000000" stroke="none" 
 	d="
M28.919662 334.603180 C31.962982 332.679138 35.514519 331.567108 39.111694 331.411896 C35.600632 336.287231 28.259560 337.895477 23.031776 334.934570 C24.862946 334.552460 26.694115 334.170349 28.525284 333.788269 z"/><path class="selected"  fill="#000000" opacity="1.000000" stroke="none" 
 	d="
M213.080688 222.434311 C212.125854 222.553955 212.922485 220.558990 213.532288 221.303436 C214.344269 221.534851 213.832153 223.091644 213.041351 222.795807 z"/><path class="selected"  fill="#000000" opacity="1.000000" stroke="none" 
 	d="
M133.913849 226.473434 C131.349091 228.536743 128.784332 230.600067 126.219551 232.663376 C125.875114 233.354126 124.697121 233.359711 124.346153 232.672256 C124.653435 228.280029 129.779602 224.958847 133.913849 226.473434 z"/><path class="selected"  fill="#000000" opacity="1.000000" stroke="none" 
 	d="
M231.568726 282.922394 C232.071075 282.343903 232.969818 283.496887 232.466675 284.074677 C231.963531 284.652466 231.033417 284.516724 230.323090 284.229614 C229.612762 283.942535 228.858276 283.545135 228.122375 283.758392 C229.103607 283.052612 230.427124 282.848694 231.575256 283.226379 z"/><path class="selected"  fill="#000000" opacity="1.000000" stroke="none" 
 	d="
M64.592094 222.489502 C65.806099 222.266037 67.076653 222.045212 68.256599 222.407822 C65.508644 226.619614 58.860023 227.544617 55.066734 224.242874 C58.241844 223.658417 61.416969 223.073959 64.592094 222.489502 z"/><path class="selected"  fill="#000000" opacity="1.000000" stroke="none" 
 	d="
M154.096100 246.642502 C154.452362 247.621307 152.753571 248.464050 152.189789 247.588181 C151.858673 246.672409 152.103058 245.575226 152.791504 244.886536 C153.298492 245.394180 153.805450 245.901825 154.312439 246.409470 z"/><path class="selected"  fill="#000000" opacity="1.000000" stroke="none" 
 	d="
M53.378761 96.343613 C57.308434 100.525124 58.033867 107.374550 55.067284 112.286453 C54.192101 107.011467 53.627953 101.684898 53.378761 96.343613 z"/><path class="selected"  fill="#000000" opacity="1.000000" stroke="none" 
 	d="
M253.926910 344.142090 C253.988068 345.488831 252.204987 346.504364 251.077881 345.764709 C251.667023 344.707672 252.887512 344.036621 254.095703 344.105469 z"/><path class="selected"  fill="#000000" opacity="1.000000" stroke="none" 
 	d="
M115.565132 198.143936 C116.236778 198.982285 117.383766 199.410736 118.440559 199.218033 C119.496101 201.518234 119.850990 205.255524 117.345879 205.615356 C116.149162 205.787262 115.083382 204.908340 114.194725 204.088593 C112.971123 202.959869 111.649620 201.609299 111.709251 199.945663 C111.768898 198.282028 114.289879 197.039078 115.118660 198.482803 z"/><path class="selected"  fill="#000000" opacity="1.000000" stroke="none" 
 	d="
M212.052216 0.152693 C212.354828 1.475044 212.657471 2.797395 212.960083 4.119745 C211.180206 4.833149 210.776733 1.569879 211.877808 0.000000 z"/><path class="selected"  fill="#000000" opacity="1.000000" stroke="none" 
 	d="
M135.498627 242.000320 C133.248108 243.476746 130.187073 243.616104 127.811699 242.350296 C131.375153 239.675232 135.835754 238.217712 140.291229 238.272568 C139.850494 240.374451 137.762634 242.001572 135.616791 241.915512 z"/><path class="selected"  fill="#000000" opacity="1.000000" stroke="none" 
 	d="
M216.218811 206.440689 C215.810852 205.870346 215.402924 205.300003 214.994995 204.729660 C215.636230 203.895233 216.604370 203.319107 217.643616 203.153488 C217.573730 204.216644 217.195984 205.257797 216.567871 206.118423 z"/><path class="selected"  fill="#000000" opacity="1.000000" stroke="none" 
 	d="
M78.791328 77.050507 C80.952904 83.293419 80.885017 90.283028 78.602608 96.482780 C76.279533 90.277138 76.348167 83.209854 78.791328 77.050507 z"/><path class="selected"  fill="#000000" opacity="1.000000" stroke="none" 
 	d="
M161.482727 196.622528 C161.362396 197.837997 159.191742 197.434814 158.996460 196.229111 C158.801178 195.023422 159.751587 193.965225 160.627960 193.114456 C161.159393 194.196121 161.315918 195.457657 161.064972 196.636414 z"/><path class="selected"  fill="#000000" opacity="1.000000" stroke="none" 
 	d="
M150.608887 291.103363 C153.295288 288.965607 157.913635 290.196472 159.179779 293.387634 C158.198059 293.237305 157.216339 293.086975 156.234589 292.936646 C153.752991 292.556671 150.361511 292.754700 149.828400 295.207977 C148.628052 294.139954 149.117340 291.807068 150.645691 291.311371 z"/><path class="selected"  fill="#000000" opacity="1.000000" stroke="none" 
 	d="
M183.620911 280.138489 C182.088715 279.088043 181.580322 276.795197 182.524933 275.195587 C183.778351 276.495789 184.302673 278.457153 183.865234 280.209381 z"/><path class="selected"  fill="#000000" opacity="1.000000" stroke="none" 
 	d="
M122.504448 276.708710 C123.068611 273.549225 124.955437 270.647491 127.614403 268.850159 C128.649353 272.501190 125.980339 276.750916 122.242104 277.404175 z"/><path class="selected"  fill="#000000" opacity="1.000000" stroke="none" 
 	d="
M25.855675 0.306833 C26.731667 1.613548 26.117081 3.655278 24.665337 4.261321 C24.166000 2.881524 23.666664 1.501724 23.167328 0.121923 C24.145782 0.129461 25.124237 0.136999 26.102699 0.144536 z"/><path class="selected"  fill="#000000" opacity="1.000000" stroke="none" 
 	d="
M46.599922 287.139130 C47.189568 285.391388 48.520226 283.907227 50.193504 283.131042 C50.302452 286.351044 49.271111 289.598175 47.324165 292.165192 C45.546104 291.511963 45.898834 288.914459 46.588707 287.150299 z"/><path class="selected"  fill="#000000" opacity="1.000000" stroke="none" 
 	d="
M130.501617 282.775757 C129.943146 281.609283 132.568817 282.009277 132.492371 283.300262 C132.415924 284.591248 131.324341 285.838989 131.799774 287.041687 C130.068695 286.446075 129.621155 283.729065 131.069763 282.609680 z"/><path class="selected"  fill="#000000" opacity="1.000000" stroke="none" 
 	d="
M94.453194 231.750137 C94.103157 228.757797 94.952751 225.641998 96.773247 223.241516 C99.881569 225.214249 98.723534 231.016891 95.096107 231.645370 z"/><path class="selected"  fill="#000000" opacity="1.000000" stroke="none" 
 	d="
M96.107780 202.620331 C94.960091 201.901474 94.707314 200.094086 95.613731 199.087936 C97.245644 200.573410 97.670250 203.220490 96.584816 205.141846 C96.118645 204.412308 95.952934 203.496902 96.133781 202.650238 z"/><path class="selected"  fill="#000000" opacity="1.000000" stroke="none" 
 	d="
M59.156105 268.684235 C59.729210 267.828552 61.395256 268.649780 61.065636 269.625488 C59.549660 271.554779 57.566643 273.114410 55.334465 274.133057 C55.635109 271.869171 57.124107 269.797241 59.173927 268.790405 z"/><path class="selected"  fill="#000000" opacity="1.000000" stroke="none" 
 	d="
M156.470306 178.122711 C156.203491 179.119186 154.646301 179.421204 154.026306 178.596741 C154.392548 177.452484 154.997589 176.104080 156.193329 175.987045 C157.389069 175.869995 157.706665 178.287750 156.542969 177.989059 z"/><path class="selected"  fill="#000000" opacity="1.000000" stroke="none" 
 	d="
M195.629364 291.995728 C196.875061 292.170471 198.120789 292.345184 199.366516 292.519928 C196.800629 294.984009 192.002533 294.392303 190.112213 291.378662 C191.725403 290.351288 194.116791 290.844299 195.192108 292.425934 z"/><path class="selected"  fill="#000000" opacity="1.000000" stroke="none" 
 	d="
M180.079712 266.665131 C180.312195 267.540955 180.544708 268.416779 180.777191 269.292603 C179.265198 268.811310 178.175568 267.240997 178.253937 265.656189 C178.796997 264.811646 180.427795 265.724579 179.991730 266.629028 z"/><path class="selected"  fill="#000000" opacity="1.000000" stroke="none" 
 	d="
M42.617767 318.282501 C45.447914 318.312683 48.265892 319.120697 50.682014 320.594818 C46.403709 321.148010 41.983864 320.566620 37.994156 318.925842 C39.356789 318.095642 41.041161 317.809967 42.601326 318.144470 z"/><path class="selected"  fill="#000000" opacity="1.000000" stroke="none" 
 	d="
M124.670601 91.986618 C123.104729 91.574577 123.025002 88.863075 124.563957 88.359741 C126.305275 88.785042 126.376183 91.822830 124.656609 92.328918 z"/><path class="selected"  fill="#000000" opacity="1.000000" stroke="none" 
 	d="
M128.566223 128.175354 C129.505341 128.901413 130.495178 130.305710 129.604095 131.089996 C127.018791 130.264694 124.677864 128.688965 122.940208 126.604355 C124.923775 126.398918 126.978249 126.983315 128.556732 128.201981 z"/><path class="selected"  fill="#000000" opacity="1.000000" stroke="none" 
 	d="
M125.310448 187.557205 C124.821571 185.826660 124.869331 183.233246 126.659050 183.057922 C127.598991 185.375687 127.107262 188.208694 125.441246 190.074127 C125.284889 189.270493 125.128532 188.466858 124.972176 187.663223 z"/><path class="selected"  fill="#000000" opacity="1.000000" stroke="none" 
 	d="
M81.102776 243.644592 C81.169075 240.860077 81.235374 238.075546 81.301674 235.291031 C84.895088 237.312836 85.385918 243.164230 82.179543 245.756439 C81.774254 245.068863 81.368950 244.381287 80.963646 243.693710 z"/><path class="selected"  fill="#000000" opacity="1.000000" stroke="none" 
 	d="
M116.168190 285.543335 C117.151466 286.212494 118.134743 286.881683 119.118019 287.550842 C117.769798 288.128632 116.082619 288.666748 114.951714 287.732635 C113.820808 286.798492 115.328194 284.351105 116.313148 285.438019 z"/><path class="selected"  fill="#000000" opacity="1.000000" stroke="none" 
 	d="
M127.015602 99.908005 C127.942940 97.045128 132.612946 96.525284 134.147156 99.114143 C132.367889 100.606186 129.736816 100.999550 127.598976 100.093147 z"/><path class="selected"  fill="#000000" opacity="1.000000" stroke="none" 
 	d="
M109.627190 162.110840 C108.876884 161.296127 108.874428 159.902512 109.621834 159.085159 C110.865273 160.362457 111.706947 162.025345 111.999992 163.783691 C111.161293 163.307404 110.322594 162.831116 109.483894 162.354828 z"/><path class="selected"  fill="#000000" opacity="1.000000" stroke="none" 
 	d="
M178.666138 250.259048 C179.721710 249.823273 180.777313 249.387497 181.832886 248.951721 C182.267944 251.253540 179.861115 253.593903 177.572388 253.094604 C176.920471 252.126175 177.522400 250.585693 178.658142 250.315750 z"/><path class="selected"  fill="#000000" opacity="1.000000" stroke="none" 
 	d="
M106.103294 140.645065 C106.781990 141.346024 107.460701 142.046967 108.139397 142.747925 C106.450645 143.357666 104.419731 142.866180 103.196648 141.551758 C102.610023 140.299438 104.933647 139.967117 106.175758 140.575043 z"/><path class="selected"  fill="#000000" opacity="1.000000" stroke="none" 
 	d="
M137.137817 214.701935 C137.966644 214.195801 138.795502 213.689667 139.624359 213.183533 C140.408325 213.773407 140.949158 214.677048 141.098541 215.646713 C139.935974 216.138977 138.773407 216.631241 137.610870 217.123505 C136.668518 216.743500 136.349426 215.340714 137.034668 214.590469 z"/><path class="selected"  fill="#000000" opacity="1.000000" stroke="none" 
 	d="
M125.158119 238.675735 C123.718315 240.247070 121.191414 240.691711 119.301704 239.706238 C120.058311 237.267975 123.742638 236.429214 125.480156 238.299667 z"/><path class="selected"  fill="#000000" opacity="1.000000" stroke="none" 
 	d="
M56.826790 284.089722 C57.619041 286.286530 55.797508 288.992249 53.464027 289.084778 C53.058754 286.954285 54.521141 284.636444 56.618553 284.084930 z"/><path class="selected"  fill="#000000" opacity="1.000000" stroke="none" 
 	d="
M205.057831 126.652367 C205.410004 127.941277 204.785950 129.431168 203.620300 130.084335 C202.388611 128.522522 201.823944 126.451714 202.092285 124.480843 C203.362366 124.032974 204.889771 125.268799 204.716858 126.604385 z"/><path class="selected"  fill="#000000" opacity="1.000000" stroke="none" 
 	d="
M104.205772 281.555939 C105.131935 282.665955 105.455086 284.250519 105.037544 285.634552 C104.353386 286.132111 103.449898 286.315582 102.625877 286.124268 C102.125206 284.630859 101.624535 283.137451 101.123863 281.644073 C101.967888 280.953674 103.286186 280.925171 104.159264 281.578430 z"/><path class="selected"  fill="#000000" opacity="1.000000" stroke="none" 
 	d="
M106.038155 266.568909 C107.054268 265.992432 108.523857 266.501526 108.965614 267.583038 C107.434227 269.112823 104.931465 269.568329 102.959282 268.676147 C103.970177 267.948883 104.981071 267.221619 105.991966 266.494354 z"/><path class="selected"  fill="#000000" opacity="1.000000" stroke="none" 
 	d="
M182.970581 291.719971 C183.840454 294.587494 184.710327 297.454987 185.580200 300.322510 C187.753296 297.305389 192.870331 297.130035 195.244873 299.991272 C200.047028 295.859100 204.849152 291.726898 209.651306 287.594696 C205.898254 288.503723 201.792084 289.382019 198.304688 287.723785 C194.817291 286.065521 193.063446 280.659576 196.129944 278.312592 C196.597565 283.787323 204.323151 284.756989 209.609650 283.258942 C214.896149 281.760895 221.477539 279.730591 225.160431 283.808289 C222.798859 285.153931 220.437286 286.499603 218.075714 287.845245 C220.535065 289.452972 223.776886 289.794495 226.517273 288.734589 C228.097839 291.501831 223.087616 292.893890 219.912415 292.621429 C212.573639 291.991699 205.010590 295.089020 200.221588 300.685455 C204.501648 304.821136 207.933105 309.831207 210.242615 315.316528 C212.108612 311.035583 215.992828 307.687164 220.501984 306.472321 C217.529327 309.710266 214.471863 313.091339 213.145142 317.281891 C211.818420 321.472473 212.744202 326.720154 216.446899 329.088928 C220.149567 331.457703 226.315704 328.896057 226.137604 324.504089 C226.051575 322.382324 224.665161 320.556824 224.029388 318.530701 C223.393646 316.504578 224.043274 313.653595 226.146820 313.362946 C227.801422 317.764496 228.835022 322.398956 229.207458 327.086426 C232.541534 324.842957 235.875580 322.599457 239.209625 320.355988 C231.556244 313.190216 224.770538 305.098541 219.047729 296.313782 C232.387512 294.684509 242.028320 308.298492 248.424866 320.117493 C247.109314 320.162811 245.793793 320.208160 244.478241 320.253510 C236.437622 324.726501 227.080505 332.229431 229.883423 340.993164 C224.266815 331.892273 211.866089 329.823456 201.218292 330.821777 C190.570496 331.820099 179.798615 334.933624 169.360291 332.606964 C157.028503 329.858276 144.430603 334.459686 132.063904 337.046753 C115.507484 340.510315 98.202019 340.346069 81.714302 336.568878 C71.686577 334.271606 61.672325 330.473816 54.237175 323.363861 C53.243462 322.413605 53.547462 319.856293 54.593956 320.748108 C59.837059 317.443756 64.356483 325.645325 69.020485 329.726501 C73.492744 333.639893 80.013573 333.831024 85.955971 333.770782 C99.987343 333.628571 114.016045 333.224060 128.032288 332.557526 C136.735199 332.143677 145.432922 331.628815 154.130432 331.113983 C157.618591 330.907501 161.106720 330.701019 164.594879 330.494537 C180.105804 329.576385 195.694824 328.647644 210.863708 325.280731 C206.672546 324.665039 202.481384 324.049377 198.290222 323.433685 C201.371033 321.938507 204.451843 320.443298 207.532654 318.948090 C207.155792 312.061462 201.014679 306.622498 194.404510 304.654449 C187.794312 302.686401 180.731567 303.391907 173.847748 303.817352 C152.808929 305.117584 131.598511 303.612915 110.953926 299.355682 C108.312462 298.810974 105.448296 298.077026 103.842003 295.910492 C102.235710 293.743958 103.099266 289.788025 105.785820 289.550323 C108.878868 293.050415 114.541237 293.930634 118.550819 291.534607 C115.458672 294.264954 120.979134 298.337433 125.102409 298.458679 C131.187042 298.637604 137.294037 298.041748 143.229309 296.690063 C144.885437 300.041779 149.353088 300.584991 153.090240 300.686798 C162.541290 300.944305 171.992310 301.201782 181.443390 301.459290 C184.046509 296.054047 179.969055 289.844421 175.602997 285.729797 C171.236908 281.615143 165.956696 277.345886 165.559753 271.359619 C161.213715 273.913666 164.479523 280.696045 168.485992 283.755341 C172.492462 286.814636 177.634949 291.062256 175.685303 295.710907 C170.939362 290.595673 166.193420 285.480408 161.447479 280.365173 C160.491058 282.583923 159.534668 284.802673 158.578247 287.021454 C155.684692 285.145966 154.762695 280.803192 156.644684 277.913849 C150.523468 280.666321 142.450104 274.935028 143.029602 268.248535 C139.055573 271.794250 135.081543 275.339966 131.107513 278.885681 C133.754242 274.133423 136.400970 269.381165 139.047668 264.628906 C134.407990 264.885345 129.768280 265.141754 125.128593 265.398163 C118.631416 265.757263 110.035210 264.561371 108.933708 258.148224 C120.575890 259.247955 132.218079 260.347717 143.860260 261.447449 C148.345764 261.871155 153.130646 262.239227 157.106659 260.120087 C163.086578 256.932922 165.048859 249.462494 166.414886 242.825363 C168.912842 230.688751 171.410767 218.552155 173.908722 206.415558 C167.565552 206.672089 165.182098 214.753708 164.687561 221.082764 C164.193024 227.411819 162.349274 235.478134 156.059265 236.336853 C147.449310 237.512299 140.820007 246.696808 142.416016 255.238815 C137.121460 247.872452 142.542053 235.634872 151.555206 234.606064 C156.183197 234.077805 159.599548 229.669601 160.521301 225.103683 C161.443085 220.537766 160.422729 215.829071 159.405701 211.283417 C156.770782 212.473907 153.644897 212.527908 150.970428 211.429123 C154.877777 210.348938 158.389008 207.889832 160.739807 204.587128 C165.542633 207.179428 172.175781 205.600739 175.295898 201.122757 C171.880035 199.942429 168.906494 197.525192 167.053467 194.422363 C170.745056 196.843338 176.316620 196.292145 178.956329 192.753677 C181.596069 189.215195 180.036011 183.172699 175.809326 181.898346 C169.148987 179.890228 162.863983 189.234161 156.259521 187.049286 C154.880890 199.561951 143.251740 210.102890 130.664185 210.249512 C132.975586 208.911041 135.509460 207.277771 136.058197 204.663788 C136.606903 202.049789 133.314209 199.076416 131.340424 200.875946 C137.314484 197.812012 142.366760 192.977875 145.691162 187.144760 C151.824768 191.537292 134.276398 201.393082 140.302399 205.932114 C147.597473 201.114517 152.861023 193.318878 154.603027 184.751923 C160.716431 183.484406 166.653015 181.367172 172.188782 178.480103 C173.730530 177.676041 175.418396 176.556671 175.596710 174.827026 C175.934692 171.548767 171.204102 170.650787 167.934113 171.061356 C158.476044 172.248871 149.017975 173.436386 139.559906 174.623901 C143.079590 165.644684 135.832092 154.270630 126.206581 153.667465 C123.820595 153.517960 121.225716 153.877487 119.212456 152.588257 C117.199196 151.299042 117.082253 147.383316 119.456261 147.101593 C118.982491 152.813171 128.051025 154.700272 132.260742 150.811203 C136.470459 146.922134 137.230957 140.696884 138.820557 135.190536 C140.274414 130.154404 142.640961 125.146782 142.096588 119.933342 C141.552216 114.719894 136.316254 109.544144 131.469177 111.539642 C131.337708 120.685104 120.250694 127.731224 111.914772 123.967041 C119.137672 132.403702 118.316612 146.526993 110.164742 154.069839 C105.951576 157.968216 105.177010 165.048172 108.447609 169.765289 C111.718208 174.482422 118.620171 176.239899 123.748466 173.661407 C122.980034 171.843216 122.211586 170.025009 121.443138 168.206818 C124.282036 166.983688 127.493141 166.641205 130.526154 167.238068 C127.704399 169.124374 126.354591 172.955673 127.370857 176.194122 C120.269829 178.518127 111.915321 176.399521 106.779869 170.972473 C108.945580 174.337570 108.930138 178.976028 106.742058 182.326614 C106.996284 177.840622 103.605629 173.427536 99.205559 172.517532 C103.087456 192.708801 106.969353 212.900085 110.851265 233.091370 C109.105873 231.535645 107.360481 229.979919 105.615089 228.424210 C101.392982 234.516266 99.290276 242.047943 99.746178 249.446014 C100.134407 255.745865 97.477165 262.164459 92.749596 266.346436 C97.600700 263.583405 101.659081 259.446106 104.328209 254.542709 C103.155998 260.845062 100.838814 266.932678 97.523643 272.419342 C94.656227 269.104645 89.230949 268.393250 85.605888 270.856628 C81.980827 273.319977 80.644630 278.626038 82.670662 282.512482 C84.275414 280.049500 85.880165 277.586517 87.484917 275.123535 C88.612984 277.325806 90.549736 279.102295 92.840981 280.036438 C91.400078 277.821442 93.064339 274.337097 95.692802 274.065796 C96.371986 277.335297 95.750847 280.856537 93.994026 283.696350 C97.697441 285.892487 99.725334 290.589508 98.784050 294.790955 C96.673271 289.737274 91.287239 286.242523 85.812019 286.373993 C80.336815 286.505463 75.124733 290.254700 73.258919 295.403870 C72.659386 291.661469 72.059837 287.919067 71.460304 284.176666 C67.623619 285.053589 63.612328 285.159302 59.734779 284.485626 C62.334511 280.965607 66.664345 278.790771 71.040291 278.806976 C69.404854 278.048828 67.769417 277.290649 66.133965 276.532501 C69.467552 274.847626 71.555733 270.979523 71.135323 267.268066 C62.684761 267.971802 54.082481 262.605469 50.998665 254.706284 C54.569756 259.068390 61.177574 259.869049 66.536461 258.118896 C71.895348 256.368713 76.304649 252.579056 80.558403 248.879547 C77.055672 254.952637 71.436409 259.777374 64.903328 262.321075 C68.148140 265.631134 73.798790 265.364929 77.775444 262.983429 C81.752083 260.601929 84.447166 256.613129 87.011452 252.751831 C94.161476 241.985352 101.538933 230.578537 102.465614 217.687408 C103.384453 204.905365 97.783028 192.278015 98.972008 179.518265 C96.978783 179.698151 95.099937 180.871506 94.063560 182.583588 C97.149818 176.329742 96.564644 168.421768 92.591499 162.690308 C83.715813 178.564789 95.392998 201.285324 84.052223 215.503754 C84.736549 211.199753 83.684517 206.644730 81.182060 203.076752 C80.271904 207.935974 80.282402 212.966003 81.212822 217.821396 C74.965645 211.140656 72.627464 201.558456 72.831093 192.414169 C73.539238 160.612289 101.408699 132.332840 95.939201 100.996819 C89.409752 109.183617 82.611687 118.008774 81.610603 128.432571 C81.145317 133.277527 81.983162 138.199295 81.276985 143.015045 C80.570824 147.830795 77.681786 152.884201 72.913429 153.860382 C73.456352 135.089508 75.537575 116.363350 79.129387 97.931328 C79.422798 104.955841 79.716209 111.980354 80.009621 119.004868 C93.510857 101.543030 97.492180 78.764839 101.054787 56.981663 C98.808235 80.481216 96.791176 105.360413 107.081291 126.606339 C109.819023 112.692757 101.740044 98.864754 101.729820 84.684387 C101.723625 76.096596 104.675545 67.815773 107.590340 59.737778 C108.770836 56.466171 109.951347 53.194561 111.131844 49.922951 C114.831032 56.662472 127.211479 54.621655 128.551819 47.051411 C130.737183 53.227230 138.910950 54.221413 145.461639 54.151829 C143.246002 50.143208 138.948303 47.809925 134.820282 45.825657 C129.026428 43.040665 122.681114 40.454372 116.345268 41.541473 C110.009422 42.628574 104.180092 48.908504 105.930107 55.094147 C100.366081 52.054207 101.484261 42.870392 106.633049 39.170452 C111.781853 35.470516 118.790886 35.895222 124.983315 37.256680 C143.986145 41.434616 161.205139 53.216900 171.982239 69.416168 C171.154388 59.095585 162.956940 49.803150 152.820190 47.694542 C159.397217 44.125671 159.747009 34.064964 155.284454 28.058340 C150.821899 22.051714 143.308807 19.245571 136.104187 17.223850 C148.421051 17.972546 160.266052 24.487352 167.494049 34.488426 C174.722046 44.489498 177.191162 57.780479 174.037292 69.710213 C170.568420 82.831459 177.915436 96.130753 184.979736 107.719345 C194.130707 122.731003 203.281677 137.742661 212.432678 152.754318 C215.282562 157.429413 218.180878 162.224487 219.285858 167.587082 C223.693359 188.977371 198.774170 210.851822 208.542145 230.385315 C211.837494 236.975143 208.546631 244.901154 204.568817 251.102921 C200.590973 257.304657 195.701477 263.613953 195.703094 270.981812 C200.425964 269.846466 205.765442 272.163666 208.162018 276.388702 C206.247437 278.396912 203.368408 279.441193 200.611572 279.127441 C201.016174 277.363983 200.610504 275.431335 199.531036 273.979401 C195.591980 275.349121 191.197784 272.782654 188.908936 269.296509 C193.485962 266.330902 194.961334 259.475861 192.009613 254.889877 C190.881897 257.968445 189.754150 261.047028 188.626434 264.125610 C184.304291 262.198273 179.586945 261.162445 174.854950 261.101685 C174.654114 267.199402 174.497986 273.540283 176.976532 279.115173 C179.455109 284.690094 185.402313 289.229004 191.380066 288.008636 C188.576904 289.245758 185.773743 290.482849 182.970581 291.719971 M200.154572 249.426788 C203.308655 247.945343 205.170013 244.496918 205.671906 241.048599 C206.173798 237.600266 205.532318 234.099548 204.892975 230.674042 C204.209808 227.013840 203.526642 223.353622 202.843445 219.693420 C201.933136 227.486053 200.027710 235.161896 197.188141 242.475616 C199.303009 244.054642 200.477722 246.807343 200.154572 249.426788 M152.848816 113.653427 C155.867889 105.681976 157.164001 97.062935 156.622955 88.556114 C156.317505 83.753754 156.012054 78.951385 155.706604 74.149025 C154.651154 73.815681 153.876892 75.130661 153.550781 76.188370 C152.504486 71.673721 147.900055 68.696983 143.307404 68.077072 C138.714752 67.457161 134.097412 68.699417 129.629517 69.930161 C129.377411 72.317299 129.889954 74.779327 131.073730 76.867531 C128.053833 78.568901 124.255043 76.985344 121.400703 75.018806 C118.546349 73.052261 115.686501 70.593613 112.222008 70.485153 C109.386009 70.396378 110.681160 75.988373 108.136131 77.242813 C110.324333 76.281456 112.718925 75.495560 115.073097 75.908272 C117.427254 76.320984 119.655907 78.293480 119.599373 80.682884 C119.542839 83.072289 116.365532 84.969643 114.548592 83.416840 C113.464180 82.490067 111.659370 82.975594 110.784859 84.102577 C109.910347 85.229568 109.767632 86.758911 109.852592 88.182869 C110.472923 98.579208 120.685112 105.538719 130.246704 109.667221 C131.277069 110.112114 132.440277 109.545624 133.417236 108.993233 C139.396027 105.612701 145.873230 101.634727 147.890198 95.069229 C148.867676 91.887329 148.647583 88.469009 149.207184 85.187729 C149.766815 81.906448 151.464447 78.434013 154.624573 77.388275 C152.477448 91.213821 149.620972 104.929184 146.070129 118.462379 C148.806732 120.068726 151.724915 116.620926 152.848816 113.653427 M185.462067 174.782211 C186.902832 166.877106 187.729919 158.860245 187.933441 150.827499 C187.972809 149.273727 187.907471 147.519135 186.763062 146.467438 C183.473236 143.444168 183.133820 138.368881 180.654938 134.651596 C178.325165 131.157867 174.351990 129.193085 170.562592 127.383492 C165.651306 125.038139 160.740021 122.692795 155.828735 120.347443 C154.712860 119.814568 153.406342 119.277267 152.288330 119.805679 C151.413971 120.218948 150.942230 121.162071 150.534210 122.038918 C148.349274 126.734505 146.141174 131.503632 145.303589 136.614487 C144.466034 141.725357 145.158936 147.311615 148.321198 151.413147 C152.431610 156.744415 151.049591 165.431763 145.487701 169.224319 C156.121765 171.778366 167.698334 163.089890 177.744873 167.411240 C179.559143 160.638077 181.373413 153.864914 183.187683 147.091736 C185.318756 151.384933 184.072266 156.485443 183.177185 161.194153 C182.282104 165.902847 182.030396 171.436066 185.462067 174.782211 M183.826263 124.089020 C178.850189 113.193062 174.586914 101.971634 171.072723 90.520256 C169.987732 95.138405 170.883850 99.984680 172.132172 104.561378 C177.599426 124.605362 189.559814 142.153763 201.320740 159.280716 C202.174042 160.523315 203.028656 161.767715 203.985931 162.932083 C204.558350 153.052948 194.603729 145.077194 194.543152 135.181686 C194.474823 124.023666 188.977142 113.024010 180.093842 106.271767 C181.099640 115.787872 191.022644 122.457260 192.239166 131.948730 C188.163208 132.036621 185.519897 127.797478 183.826263 124.089020 M208.816803 173.950592 C208.128937 177.618240 206.666901 181.345673 207.567871 184.966858 C208.414001 188.367706 206.841522 191.849487 205.353271 195.022324 C201.701508 202.807648 198.320404 210.719940 195.218140 218.740082 C192.953156 224.595627 190.935791 231.568939 194.385529 236.814575 C196.891449 221.508133 202.324158 206.686157 210.303497 193.385880 C219.173676 178.600693 215.870422 157.664276 202.878937 146.328323 C201.466003 149.248627 203.744843 152.486618 205.425140 155.261719 C208.778381 160.799774 210.010193 167.587418 208.816803 173.950592 M104.627586 130.983170 C103.722343 134.643036 99.868019 136.594437 97.194756 139.252960 C93.338036 143.088394 91.848351 148.635818 90.510948 153.908020 C90.183388 155.199295 89.867104 156.620377 90.452950 157.816818 C91.906303 160.784973 96.401115 159.206818 99.070656 157.258545 C102.516487 154.743713 106.019371 152.172852 108.545830 148.735519 C111.072273 145.298203 112.513847 140.793777 111.311684 136.700745 C110.425285 133.682816 107.773003 130.980423 104.627586 130.983170 M176.326630 215.094650 C177.063995 216.364334 179.015961 215.608032 180.155670 214.682404 C197.307800 200.752243 203.856476 175.197159 195.517670 154.734787 C193.880951 155.652924 194.670288 158.106445 195.403778 159.833832 C198.048157 166.061386 196.975891 173.381409 194.022461 179.468475 C191.069000 185.555542 186.414276 190.630463 181.704773 195.488022 C183.943329 196.848114 186.673767 194.733688 188.253601 192.644424 C189.833435 190.555145 191.819885 188.030167 194.405457 188.449371 C190.173096 198.386032 183.996033 207.490021 176.326630 215.094650 M176.826019 250.330490 C175.281830 249.749939 173.863861 248.836182 172.697174 247.669815 C170.215637 248.002884 169.479523 251.690857 171.077118 253.618744 C172.674744 255.546616 175.472565 255.960861 177.970398 255.788010 C180.156281 255.636703 182.440430 255.076141 183.992035 253.529068 C185.543671 251.981995 186.033905 249.229568 184.568604 247.600494 C183.535522 246.451935 183.710480 244.710480 183.660919 243.166428 C183.477386 237.445572 179.486176 232.653717 175.701691 228.359558 C173.128082 231.173767 173.691803 235.599991 174.875397 239.225235 C176.058960 242.850479 177.723145 246.623962 176.826019 250.330490 M84.789207 266.423492 C90.766808 264.196594 95.135170 258.186829 95.408653 251.813782 C95.533897 248.894989 95.659142 245.976212 95.784401 243.057419 C94.515846 242.526215 93.424919 244.090012 92.928917 245.372742 C90.215675 252.389664 87.502449 259.406555 84.789207 266.423492 M140.444824 149.258560 C139.068695 155.009598 141.223816 161.458099 145.781250 165.226120 C148.714325 159.679718 146.123322 151.926941 140.444824 149.258560 M78.025078 124.516930 C74.996727 131.135696 75.009331 139.074936 78.058678 145.684052 C79.810020 138.772888 79.798347 131.422501 78.025093 124.516930 M81.792259 187.749985 C82.447716 190.335175 83.103172 192.920364 83.758644 195.505554 C85.661400 190.932373 85.852074 185.669785 84.285301 180.970886 C83.640190 183.217819 82.995094 185.464752 82.349983 187.711685 M198.690369 194.284698 C197.380463 194.833099 196.429230 196.153488 196.323822 197.569641 C198.633698 196.634750 201.004822 195.660889 202.799164 193.931717 C204.593475 192.202560 205.696777 189.515137 204.858551 187.168427 C202.810730 189.526398 200.762878 191.884369 198.715057 194.242325 M174.045990 279.628784 C173.826843 276.365814 172.477753 273.189453 170.281769 270.766113 C169.187866 273.771057 169.651581 277.296967 171.485260 279.916870 C171.871277 280.468384 172.395691 281.023376 173.068390 281.048096 C173.741119 281.072815 174.366821 280.197327 173.903717 279.708740 M142.686951 107.343483 C140.795166 108.063156 139.700256 110.402458 140.359497 112.316147 C142.966095 112.622849 144.518799 108.791771 142.975525 106.668877 M119.107628 68.632011 C118.759895 69.606560 120.405586 70.470825 121.010521 69.631340 C120.808250 67.905769 119.944481 66.266098 118.635750 65.123413 C117.749367 66.124466 117.979927 67.894051 119.093193 68.634575 M87.569130 159.094757 C88.413170 158.499954 87.592659 156.847794 86.608681 157.160843 C85.775078 157.986771 84.941460 158.812683 84.107857 159.638611 C85.118370 160.502991 86.870140 160.254654 87.600578 159.143448 M79.636238 268.194000 C78.792915 268.789368 79.613289 270.440430 80.597145 270.127899 C81.437279 269.289398 82.277397 268.450897 83.117516 267.612366 C81.988243 267.119110 80.571480 267.379089 79.690941 268.241211 M156.159210 271.589600 C156.733276 272.651855 157.785248 273.443756 158.964844 273.701599 C159.956116 272.224823 157.243286 270.275513 156.136993 271.668213 M214.545593 290.011566 C215.668518 289.657990 216.251709 288.162689 215.664764 287.142181 C214.835510 287.024689 213.887329 287.380463 213.555573 288.149506 C213.223816 288.918549 213.828888 289.995758 214.662781 289.917572 M186.622314 218.078308 C187.242889 218.519089 188.112549 217.674149 187.990906 216.922729 C187.869263 216.171326 187.203400 215.647186 186.587128 215.200363 C185.902618 216.040283 185.886108 217.355179 186.549286 218.212021 M180.624634 178.146179 C180.223877 178.895599 181.858612 179.451996 181.998230 178.613693 C182.678986 178.053345 180.995575 177.416306 180.610565 178.209518 M122.604424 62.783733 C123.297020 62.786903 123.303078 61.464161 122.610481 61.460987 C121.917900 61.457817 121.911842 62.780563 122.604424 62.783733 M154.602783 59.144543 C154.602783 59.144543 154.602783 59.144543 154.602783 59.144543 z"/></svg>